<svg xmlns="http://www.w3.org/2000/svg" width="30.07" height="31.846" viewBox="0 0 30.07 31.846">
  <path id="Volume_maximo" data-name="Volume maximo" d="M11.225,4.777l-4.645,5.9H1.253A1.453,1.453,0,0,0,0,12.27v9.553a1.453,1.453,0,0,0,1.253,1.592H6.581l4.645,5.9c.785,1,2.139.3,2.139-1.126V5.9C13.364,4.479,12.009,3.781,11.225,4.777Zm12.18-3.389a1.111,1.111,0,0,0-1.749.461,1.885,1.885,0,0,0,.363,2.223c3.46,2.885,5.524,7.735,5.524,12.975s-2.065,10.09-5.524,12.975a1.884,1.884,0,0,0-.363,2.222,1.114,1.114,0,0,0,1.749.461c4.172-3.48,6.664-9.335,6.664-15.659S27.578,4.869,23.406,1.388Zm1.652,15.659A13.316,13.316,0,0,0,20.58,6.682a1.1,1.1,0,0,0-1.729.495,1.888,1.888,0,0,0,.387,2.213,9.838,9.838,0,0,1,3.314,7.657A9.838,9.838,0,0,1,19.238,24.7a1.887,1.887,0,0,0-.387,2.213,1.107,1.107,0,0,0,1.729.495A13.315,13.315,0,0,0,25.058,17.047Zm-7.4-5.1a1.131,1.131,0,0,0-1.7.627,1.837,1.837,0,0,0,.493,2.163,2.987,2.987,0,0,1,0,4.619,1.837,1.837,0,0,0-.493,2.163,1.129,1.129,0,0,0,1.7.627,6.218,6.218,0,0,0,2.389-5.1A6.214,6.214,0,0,0,17.657,11.947Z" transform="translate(0 -1.125)" fill="#9fc54d"/>
</svg>
