<svg xmlns="http://www.w3.org/2000/svg" width="25.058" height="25.475" viewBox="0 0 25.058 25.475">
  <path id="Volume_maximo" data-name="Volume maximo" d="M11.225,4.777l-4.645,5.9H1.253A1.453,1.453,0,0,0,0,12.27v9.553a1.453,1.453,0,0,0,1.253,1.592H6.581l4.645,5.9c.785,1,2.139.3,2.139-1.126V5.9C13.364,4.479,12.009,3.781,11.225,4.777Zm13.833,12.27A13.316,13.316,0,0,0,20.58,6.682a1.1,1.1,0,0,0-1.729.495,1.888,1.888,0,0,0,.387,2.213,9.838,9.838,0,0,1,3.314,7.657A9.838,9.838,0,0,1,19.238,24.7a1.887,1.887,0,0,0-.387,2.213,1.107,1.107,0,0,0,1.729.495A13.315,13.315,0,0,0,25.058,17.047Z" transform="translate(0 -4.31)" fill="#9fc54d"/>
</svg>
