<svg id="Volume_" data-name="Volume " xmlns="http://www.w3.org/2000/svg" width="55" height="55" viewBox="0 0 55 55">
  <path id="Caminho_4" data-name="Caminho 4" d="M27.5,0A27.5,27.5,0,1,1,0,27.5,27.5,27.5,0,0,1,27.5,0Z" fill="#fff"/>
  <g id="Grupo_53" data-name="Grupo 53">
    <path id="Volume_maximo" data-name="Volume maximo" d="M11.225,4.777l-4.645,5.9H1.253A1.453,1.453,0,0,0,0,12.27v9.553a1.453,1.453,0,0,0,1.253,1.592H6.581l4.645,5.9c.785,1,2.139.3,2.139-1.126V5.9C13.364,4.479,12.009,3.781,11.225,4.777Z" transform="translate(12.36 10.452)" fill="#9fc54d"/>
    <path id="sem_musica" data-name="sem musica" d="M28.713,16.442,31.552,13.6a1,1,0,0,0,0-1.419l-1.419-1.419a1,1,0,0,0-1.419,0L25.874,13.6l-2.839-2.839a1,1,0,0,0-1.419,0L20.2,12.184a1,1,0,0,0,0,1.419l2.839,2.839L20.2,19.28a1,1,0,0,0,0,1.419l1.419,1.419a1,1,0,0,0,1.419,0l2.838-2.838,2.839,2.839a1,1,0,0,0,1.419,0L31.552,20.7a1,1,0,0,0,0-1.419Z" transform="translate(9.577 11.058)" fill="#9fc54d"/>
  </g>
</svg>
