<svg xmlns="http://www.w3.org/2000/svg" width="45.032" height="43.156" viewBox="0 0 45.032 43.156">
  <path id="Icon_ionic-ios-trophy" data-name="Icon ionic-ios-trophy" d="M38.864,7.678H33.037V5.912A1.417,1.417,0,0,0,31.625,4.5H11.85a1.417,1.417,0,0,0-1.412,1.412V7.678H4.611A1.24,1.24,0,0,0,3.375,8.914h0a14.009,14.009,0,0,0,2,7.981,7.188,7.188,0,0,0,4.97,3.558.725.725,0,0,1,.547.433A9.6,9.6,0,0,0,15.4,25.493,17.023,17.023,0,0,0,19.963,27.4a.709.709,0,0,1,.547.689v7.133a.708.708,0,0,1-.706.706H14.013A1.266,1.266,0,0,0,12.742,37.1a1.237,1.237,0,0,0,1.236,1.3h15.5a1.266,1.266,0,0,0,1.271-1.174,1.237,1.237,0,0,0-1.236-1.3H23.688a.708.708,0,0,1-.706-.706V28.1a.709.709,0,0,1,.547-.689A17.439,17.439,0,0,0,28.094,25.5,9.6,9.6,0,0,0,32.6,20.894a.707.707,0,0,1,.547-.433,7.188,7.188,0,0,0,4.97-3.558A14.206,14.206,0,0,0,40.1,8.914h0A1.24,1.24,0,0,0,38.864,7.678ZM10.437,17.442a.355.355,0,0,1-.477.335,5.144,5.144,0,0,1-2.7-2.551,9.3,9.3,0,0,1-1.333-4.308.708.708,0,0,1,.706-.768h3.1a.708.708,0,0,1,.706.706Zm25.778-2.216a5.144,5.144,0,0,1-2.7,2.551.355.355,0,0,1-.477-.335V10.856a.708.708,0,0,1,.706-.706h3.1a.708.708,0,0,1,.706.768A9.4,9.4,0,0,1,36.216,15.226Z" transform="translate(-4.543 7.421) rotate(-17)" fill="#d8a910"/>
</svg>
