<?xml version="1.0" encoding="utf-8"?>
<!-- Generator: Adobe Illustrator 26.3.1, SVG Export Plug-In . SVG Version: 6.00 Build 0)  -->
<svg version="1.1" id="Camada_1" xmlns="http://www.w3.org/2000/svg" xmlns:xlink="http://www.w3.org/1999/xlink" x="0px" y="0px"
	 viewBox="0 0 450 450" style="enable-background:new 0 0 450 450;" xml:space="preserve">
<style type="text/css">
	.st0{fill:#040404;}
	.st1{fill:#050505;}
</style>
<g>
	<path class="st0" d="M236.2,33.1c5.2,0.5,10.4,1.9,15.5,3c16.4,3.7,31.3,10.6,44.8,20.6c3.6,2.6,4.3,5.8,2.3,8.6
		c-2.1,2.8-5.3,3.1-8.9,0.5c-19.9-14.5-42.2-21.6-66.8-21.4C171,44.8,124.8,84.8,117,136.5c-1.2,7.7-2.4,15.4-0.7,23.1
		c2.7,12.4,14.7,21.3,27,20.2c13.5-1.3,23.7-11.5,24.1-24.7c0.9-26,12.8-44.8,37-54.7c29.3-12,62.7,3,74.3,32.6
		c11.5,29.2-3,63-32.3,74.2c-20.9,8-35.9,21.6-43.5,42.8c-4.7,13.2-4.8,27-3.2,40.7c1.5,12,13.3,21.1,25.5,21
		c12.5-0.2,23.4-9.4,25.3-21.3c0.9-5.5,0.4-11,0.5-16.5c0.1-9.2,3.4-13.9,12-17.3c40.1-16.1,63.9-45.7,70.3-88.2
		c4.6-30-3.4-57.4-22-81.5c-0.9-1.2-2-2.3-2.8-3.5c-1.7-2.7-1.4-5.3,0.9-7.4c2.3-2.1,5.5-2,7.7,0.4c2.3,2.6,4.5,5.4,6.5,8.2
		c45.2,63.9,17.8,154-55.4,182c-5.9,2.2-6,2.5-6,8.7c0,6.1,0.4,12.3-0.9,18.3c-4.1,17.9-20.3,30.4-37.8,29.3
		c-19.2-1.2-33.9-14.7-35.5-33.7c-1.4-16.5-0.8-33,6.2-48.5c9.1-20.3,24-34.7,44.8-42.7c18.3-7,29.3-19.8,31.7-39.4
		c2.3-18.5-7.4-36.6-24-45.5c-16.6-8.9-37.1-6.8-51.5,5.3c-11.3,9.5-16.4,21.9-16.8,36.5c-0.5,17.1-11.8,30.9-28.5,35
		c-22.6,5.6-45.2-11.6-45.8-34.9c-1.2-49.9,32-97.9,79.3-114.6c9.1-3.2,27.9-6.7,27.9-6.7"/>
	<path class="st1" d="M217.5,416.2c-4.1-1.8-5.5-4.1-4.5-7.3c0.9-3,3.7-4.3,7.6-3.6c13.1,2.2,25.5-5.6,29.2-18.3
		c3.8-12.8-2.6-26.3-14.9-31.5c-9.8-4.1-21.2-1.7-28.6,5.9c-7.4,7.7-9.4,19-5.1,28.8c2.3,5.3,1.8,8.4-1.6,10
		c-3.6,1.6-6.5-0.2-8.9-5.6c-8.5-19.6,1.1-42.4,21.1-49.9c20.1-7.5,42.1,3.2,48.6,23.7c6.5,20.4-5.5,41.9-26.2,47.4
		c-1.3,0.4-2.3,0.8-4.1,1.2"/>
</g>
</svg>
