<svg xmlns="http://www.w3.org/2000/svg" width="45.032" height="43.156" viewBox="0 0 45.032 43.156">
  <path id="Icon_ionic-ios-trophy" data-name="Icon ionic-ios-trophy" d="M35.489,3.178H29.662V1.412A1.417,1.417,0,0,0,28.25,0H8.475A1.417,1.417,0,0,0,7.062,1.412V3.178H1.236A1.24,1.24,0,0,0,0,4.414H0a14.009,14.009,0,0,0,2,7.981,7.188,7.188,0,0,0,4.97,3.558.725.725,0,0,1,.547.433,9.6,9.6,0,0,0,4.511,4.608A17.023,17.023,0,0,0,16.588,22.9a.709.709,0,0,1,.547.689v7.133a.708.708,0,0,1-.706.706H10.638A1.266,1.266,0,0,0,9.367,32.6,1.237,1.237,0,0,0,10.6,33.9H26.1a1.266,1.266,0,0,0,1.271-1.174,1.237,1.237,0,0,0-1.236-1.3H20.313a.708.708,0,0,1-.706-.706V23.6a.709.709,0,0,1,.547-.689A17.439,17.439,0,0,0,24.719,21a9.6,9.6,0,0,0,4.511-4.608.707.707,0,0,1,.547-.433,7.188,7.188,0,0,0,4.97-3.558,14.206,14.206,0,0,0,1.977-7.989h0A1.24,1.24,0,0,0,35.489,3.178ZM7.062,12.942a.355.355,0,0,1-.477.335,5.144,5.144,0,0,1-2.7-2.551A9.3,9.3,0,0,1,2.551,6.418a.708.708,0,0,1,.706-.768h3.1a.708.708,0,0,1,.706.706Zm25.778-2.216a5.144,5.144,0,0,1-2.7,2.551.355.355,0,0,1-.477-.335V6.356a.708.708,0,0,1,.706-.706h3.1a.708.708,0,0,1,.706.768A9.4,9.4,0,0,1,32.841,10.726Z" transform="translate(0 10.737) rotate(-17)" fill="#a8a8a8"/>
</svg>
