<svg xmlns="http://www.w3.org/2000/svg" width="62.741" height="57.915" viewBox="0 0 62.741 57.915">
  <path id="Icon_ionic-ios-trophy" data-name="Icon ionic-ios-trophy" d="M64,9.929H54.05V6.913A2.42,2.42,0,0,0,51.637,4.5H17.854a2.42,2.42,0,0,0-2.413,2.413V9.929H5.486a2.118,2.118,0,0,0-2.111,2.111h0c0,6.229,1.176,9.954,3.409,13.634a12.281,12.281,0,0,0,8.491,6.078,1.238,1.238,0,0,1,.935.739c.935,2.323,3.047,5.249,7.707,7.873a29.081,29.081,0,0,0,7.8,3.258,1.21,1.21,0,0,1,.935,1.176V56.985a1.21,1.21,0,0,1-1.207,1.207H21.549A2.163,2.163,0,0,0,19.377,60.2a2.114,2.114,0,0,0,2.111,2.217H47.972a2.163,2.163,0,0,0,2.172-2.006,2.114,2.114,0,0,0-2.111-2.217H38.078a1.21,1.21,0,0,1-1.207-1.207V44.814a1.21,1.21,0,0,1,.935-1.176,29.792,29.792,0,0,0,7.8-3.258c4.66-2.624,6.772-5.55,7.707-7.873a1.208,1.208,0,0,1,.935-.739,12.281,12.281,0,0,0,8.491-6.078c2.2-3.7,3.378-7.42,3.378-13.649h0A2.118,2.118,0,0,0,64,9.929ZM15.441,26.61a.606.606,0,0,1-.814.573,8.788,8.788,0,0,1-4.615-4.359,15.882,15.882,0,0,1-2.277-7.36A1.209,1.209,0,0,1,8.94,14.152h5.294a1.21,1.21,0,0,1,1.207,1.207ZM59.48,22.825a8.788,8.788,0,0,1-4.615,4.359.606.606,0,0,1-.814-.573V15.359a1.21,1.21,0,0,1,1.207-1.207h5.294a1.209,1.209,0,0,1,1.207,1.312A16.065,16.065,0,0,1,59.48,22.825Z" transform="translate(-3.375 -4.5)" fill="#e9cb08"/>
</svg>
